# xmcd
#
# Track frame offsets:
#	151
#	10932
#	25235
#	42007
#	55491
#	77291
#	96619
#	110471
#	127846
#	142449
#
# Disc length: 2055 seconds
#
# Revision: 1
# Processed by: cddbd v1.5.2PL0 Copyright (c) Steve Scherf et al.
# Submitted via: audiograbber 1.83.01
#
DISCID=8208050a
DTITLE=Eddie Harris - I Belive Eddie Harris
DYEAR=1900
DGENRE=
TTITLE0=I Belive
TTITLE1=In The Garden
TTITLE2=Just Closer Walk With Thee
TTITLE3=You´ll Never Walk Alone
TTITLE4=How Great To Art
TTITLE5=It Is My Secret
TTITLE6=Take My Hand Precious Lord
TTITLE7=Peace In The Valley
TTITLE8=One Day At A Time 
TTITLE9=He Is Lord
EXTD=
EXTT0=
EXTT1=
EXTT2=
EXTT3=
EXTT4=
EXTT5=
EXTT6=
EXTT7=
EXTT8=
EXTT9=
PLAYORDER=
